{
  "asset": {
    "version": "2.0",
    "generator": "3dpea GLTFExporter"
  },
  "scenes": [
    {
      "name": "AuxScene",
      "nodes": [
        7
      ]
    }
  ],
  "scene": 0,
  "nodes": [
    {
      "name": "Cube002_Material_0",
      "extras": {
        "name": "Cube.002_Material_0"
      },
      "mesh": 0
    },
    {
      "matrix": [
        3.8941437718875704e-7,
        -2.220446049250313e-16,
        -1.9999999999999623,
        0,
        -2.42566394805899,
        4.7229420780132447e-7,
        -4.7229420793597587e-7,
        0,
        5.500341692077905e-8,
        0.28249299526214067,
        1.0663427739602231e-14,
        0,
        -0.892124593257904,
        0,
        3.6955583095550537,
        1
      ],
      "name": "Cube002",
      "extras": {
        "name": "Cube.002"
      },
      "children": [
        0
      ]
    },
    {
      "name": "Cube003_Material002_0",
      "extras": {
        "name": "Cube.003_Material.002_0"
      },
      "mesh": 1
    },
    {
      "matrix": [
        1.9470718881642313e-7,
        -1.1102230246251565e-16,
        -0.9999999999999809,
        0,
        -0.3981342315673677,
        7.75195970884755e-8,
        -7.751959693376928e-8,
        0,
        1.188210071107544e-8,
        0.061025485396384034,
        2.317114944978964e-15,
        0,
        1.8712403774261475,
        1.4859024286270142,
        3.663377285003662,
        1
      ],
      "name": "Cube003",
      "extras": {
        "name": "Cube.003"
      },
      "children": [
        2
      ]
    },
    {
      "name": "RootNode",
      "extras": {
        "name": "RootNode"
      },
      "children": [
        1,
        3
      ]
    },
    {
      "matrix": [
        1,
        0,
        0,
        0,
        0,
        2.220446049250313e-16,
        1,
        0,
        0,
        -1,
        2.220446049250313e-16,
        0,
        0,
        0,
        0,
        1
      ],
      "name": "LowPolyBuildingfbx",
      "extras": {
        "name": "LowPolyBuilding.fbx"
      },
      "children": [
        4
      ]
    },
    {
      "matrix": [
        1,
        0,
        0,
        0,
        0,
        2.220446049250313e-16,
        -1,
        0,
        0,
        1,
        2.220446049250313e-16,
        0,
        0,
        0,
        0,
        1
      ],
      "name": "Sketchfab_model",
      "extras": {
        "name": "Sketchfab_model"
      },
      "children": [
        5
      ]
    },
    {
      "name": "low_poly_building",
      "extras": {
        "additionalData": []
      },
      "children": [
        6
      ]
    }
  ],
  "bufferViews": [
    {
      "buffer": 0,
      "byteOffset": 0,
      "byteLength": 23028,
      "target": 34962,
      "byteStride": 12
    },
    {
      "buffer": 0,
      "byteOffset": 23028,
      "byteLength": 23028,
      "target": 34962,
      "byteStride": 12
    },
    {
      "buffer": 0,
      "byteOffset": 46056,
      "byteLength": 15352,
      "target": 34962,
      "byteStride": 8
    },
    {
      "buffer": 0,
      "byteOffset": 61408,
      "byteLength": 19056,
      "target": 34963
    },
    {
      "buffer": 0,
      "byteOffset": 80464,
      "byteLength": 1440,
      "target": 34962,
      "byteStride": 12
    },
    {
      "buffer": 0,
      "byteOffset": 81904,
      "byteLength": 1440,
      "target": 34962,
      "byteStride": 12
    },
    {
      "buffer": 0,
      "byteOffset": 83344,
      "byteLength": 960,
      "target": 34962,
      "byteStride": 8
    },
    {
      "buffer": 0,
      "byteOffset": 84304,
      "byteLength": 1104,
      "target": 34963
    }
  ],
  "buffers": [
    {
      "byteLength": 85408,
      "uri": "data:application/octet-stream;base64,"
    }
  ],
  "accessors": [
    {
      "bufferView": 0,
      "componentType": 5126,
      "count": 1919,
      "max": [
        1,
        1,
        1
      ],
      "min": [
        -1,
        -1,
        -1
      ],
      "type": "VEC3"
    },
    {
      "bufferView": 1,
      "componentType": 5126,
      "count": 1919,
      "max": [
        1.0642929077148438,
        1,
        22.159814834594727
      ],
      "min": [
        -1.0642929077148438,
        -1.109229326248169,
        0.07911205291748047
      ],
      "type": "VEC3"
    },
    {
      "bufferView": 2,
      "componentType": 5126,
      "count": 1919,
      "max": [
        0.4431094825267792,
        0.8684270977973938
      ],
      "min": [
        0.16608263552188873,
        0.702962338924408
      ],
      "type": "VEC2"
    },
    {
      "bufferView": 3,
      "componentType": 5125,
      "count": 4764,
      "max": [
        1918
      ],
      "min": [
        0
      ],
      "type": "SCALAR"
    },
    {
      "bufferView": 4,
      "componentType": 5126,
      "count": 120,
      "max": [
        1,
        1,
        0.6709949970245361
      ],
      "min": [
        -1,
        -1,
        -0.37936070561408997
      ],
      "type": "VEC3"
    },
    {
      "bufferView": 5,
      "componentType": 5126,
      "count": 120,
      "max": [
        1,
        1,
        4.9358062744140625
      ],
      "min": [
        -1,
        -1.002703070640564,
        -2.1617093086242676
      ],
      "type": "VEC3"
    },
    {
      "bufferView": 6,
      "componentType": 5126,
      "count": 120,
      "max": [
        0.587109386920929,
        0.740875244140625
      ],
      "min": [
        0.3928416967391968,
        0.6908569931983948
      ],
      "type": "VEC2"
    },
    {
      "bufferView": 7,
      "componentType": 5125,
      "count": 276,
      "max": [
        119
      ],
      "min": [
        0
      ],
      "type": "SCALAR"
    }
  ],
  "materials": [
    {
      "pbrMetallicRoughness": {
        "metallicFactor": 0,
        "roughnessFactor": 0.8040408205773457,
        "baseColorTexture": {
          "index": 0
        }
      },
      "doubleSided": true,
      "name": "Material"
    },
    {
      "pbrMetallicRoughness": {
        "metallicFactor": 0,
        "roughnessFactor": 0.8040408205773457,
        "baseColorTexture": {
          "index": 0
        }
      },
      "doubleSided": true,
      "name": "Material.002"
    }
  ],
  "textures": [
    {
      "sampler": 0,
      "source": 0
    }
  ],
  "samplers": [
    {
      "magFilter": 9729,
      "minFilter": 9987,
      "wrapS": 10497,
      "wrapT": 10497
    }
  ],
  "images": [
    {
      "mimeType": "image/png",
      "uri": "data:image/png;base64,"
    }
  ],
  "meshes": [
    {
      "primitives": [
        {
          "mode": 4,
          "attributes": {
            "NORMAL": 0,
            "POSITION": 1,
            "TEXCOORD_0": 2
          },
          "indices": 3,
          "material": 0
        }
      ]
    },
    {
      "primitives": [
        {
          "mode": 4,
          "attributes": {
            "NORMAL": 4,
            "POSITION": 5,
            "TEXCOORD_0": 6
          },
          "indices": 7,
          "material": 1
        }
      ]
    }
  ]
}